<?xml version="1.0" standalone="no"?>
<!DOCTYPE svg PUBLIC "-//W3C//DTD SVG 20010904//EN"
 "http://www.w3.org/TR/2001/REC-SVG-20010904/DTD/svg10.dtd">
<svg version="1.0" xmlns="http://www.w3.org/2000/svg"
 width="131.000000pt" height="131.000000pt" viewBox="0 0 131.000000 131.000000"
 preserveAspectRatio="xMidYMid meet">
<metadata>
Created by potrace 1.11, written by Peter Selinger 2001-2013
</metadata>
<g transform="translate(0.000000,131.000000) scale(0.100000,-0.100000)"
fill="#000000" stroke="none">
<path d="M368 842 c-49 -3 -63 -16 -29 -25 18 -4 19 -15 20 -121 1 -110 0
-116 -19 -116 -11 0 -20 -4 -20 -10 0 -6 45 -10 114 -10 126 0 125 -1 118 68
-5 37 -22 44 -22 9 0 -34 -28 -53 -82 -56 l-48 -3 0 61 c0 53 2 61 19 61 33 0
51 -11 51 -31 0 -10 4 -19 9 -19 10 0 17 52 13 93 -4 30 -22 38 -22 8 0 -20
-18 -31 -51 -31 -16 0 -19 7 -19 50 l0 50 43 0 c47 0 87 -22 87 -47 0 -32 15
-1 16 32 l1 33 -66 4 c-36 2 -87 2 -113 0z"/>
<path d="M623 842 c-35 -3 -46 -22 -14 -22 17 0 19 -9 20 -121 l1 -121 -24 4
c-17 4 -23 1 -19 -9 6 -16 123 -19 123 -3 0 6 -9 10 -20 10 -17 0 -20 7 -20
50 l0 50 40 0 c22 0 42 -1 44 -2 2 -2 18 12 35 29 21 22 30 40 27 55 -3 13 -5
28 -5 35 -2 29 -104 53 -188 45z m121 -32 c21 -8 26 -16 26 -42 0 -39 -13 -63
-29 -54 -6 4 -11 2 -11 -3 0 -6 -13 -11 -30 -11 l-30 0 0 60 c0 57 1 60 24 60
14 0 36 -4 50 -10z"/>
<path d="M969 805 c-7 -19 -16 -35 -19 -35 -3 0 -6 -9 -7 -20 -1 -10 -8 -34
-16 -52 -8 -18 -23 -53 -32 -78 -9 -25 -26 -67 -36 -93 l-19 -48 21 3 c12 2
23 10 25 18 10 53 79 211 89 203 4 -5 5 -2 1 4 -8 14 24 113 36 113 5 0 8 5 8
10 0 6 -9 10 -19 10 -13 0 -24 -11 -32 -35z"/>
<path d="M255 791 c-11 -5 -23 -7 -27 -4 -5 2 -8 0 -8 -5 0 -13 -89 -54 -100
-47 -6 4 -10 1 -10 -4 0 -6 -16 -17 -35 -25 -54 -23 -44 -42 45 -85 44 -22 80
-38 80 -35 0 2 16 -5 35 -16 43 -24 45 -24 45 -5 0 14 -108 71 -184 99 -18 6
-17 8 10 24 37 22 167 77 175 75 4 -1 5 7 2 17 -3 11 -6 20 -7 19 0 0 -10 -4
-21 -8z"/>
<path d="M1050 778 c0 -10 7 -18 16 -18 8 0 12 -4 9 -10 -3 -6 1 -7 9 -4 9 3
16 1 16 -6 0 -6 3 -9 8 -7 4 3 40 -10 79 -27 l73 -32 -58 -25 c-31 -13 -61
-24 -67 -24 -5 0 -12 -3 -15 -6 -3 -4 -24 -16 -47 -28 -24 -12 -43 -24 -43
-27 0 -3 5 -2 10 1 6 3 10 1 10 -5 0 -6 14 -4 38 6 20 9 43 17 50 17 6 0 12 4
12 8 0 7 56 29 73 29 4 -1 15 6 23 15 9 8 22 15 30 15 30 0 14 40 -23 58 -21
9 -40 19 -43 22 -3 3 -9 6 -15 7 -20 3 -115 50 -110 54 2 3 -5 5 -15 5 -13 0
-20 -7 -20 -18z"/>
<path d="M600 630 c-9 -6 -10 -10 -3 -10 6 0 15 5 18 10 8 12 4 12 -15 0z"/>
</g>
</svg>
